<svg width="22" height="30" viewBox="0 0 22 30" fill="none" xmlns="http://www.w3.org/2000/svg">
<path fill-rule="evenodd" clip-rule="evenodd" d="M4.33603 18.6794C4.33603 20.4094 4.95102 21.8864 6.18102 23.1154C7.41102 24.3454 8.89102 24.9594 10.621 24.9594C12.351 24.9594 13.831 24.3444 15.061 23.1164C16.291 21.8894 16.921 20.4104 16.907 18.6814L16.742 0.991375H20.932L21.097 18.6814C21.124 21.5664 20.073 24.0374 18.023 26.0814C15.977 28.1214 13.513 29.1454 10.623 29.1454C7.73503 29.1454 5.26302 28.1234 3.21702 26.0804C1.17302 24.0374 0.150024 21.5664 0.150024 18.6804V8.21637H4.34002V18.6794" fill="#0075B6"/>
<path fill-rule="evenodd" clip-rule="evenodd" d="M10.686 18.6794H14.876V6.96437H10.686" fill="#77B635"/>
</svg>
