<svg width="91" height="43" viewBox="0 0 91 43" fill="none" xmlns="http://www.w3.org/2000/svg">
<path fill-rule="evenodd" clip-rule="evenodd" d="M21.052 32.0504C21.052 34.9364 20.03 37.4074 17.978 39.4504C15.933 41.4934 13.466 42.5144 10.578 42.5144V38.3284C12.308 38.3284 13.788 37.7144 15.018 36.4864C16.248 35.2564 16.862 33.7864 16.862 32.0724C15.062 33.4504 12.966 34.1424 10.578 34.1424C7.68998 34.1424 5.21598 33.1224 3.17098 31.0794C1.12698 29.0364 0.10498 26.5654 0.10498 23.6794V13.2164H4.29498V23.6794C4.29498 25.4094 4.90898 26.8864 6.13898 28.1154C7.36898 29.3454 8.84898 29.9594 10.579 29.9594C12.309 29.9594 13.789 29.3444 15.019 28.1164C16.249 26.8884 16.863 25.4104 16.863 23.6814V13.2164H21.053L21.052 32.0504ZM56.664 17.4004C54.934 17.4004 53.454 18.0154 52.224 19.2444C50.994 20.4724 50.38 21.9514 50.38 23.6794C50.38 25.4094 50.995 26.8864 52.224 28.1154C53.454 29.3454 54.934 29.9594 56.664 29.9594C58.394 29.9594 59.874 29.3444 61.104 28.1164C62.334 26.8884 62.949 25.4104 62.949 23.6814C62.949 21.9534 62.333 20.4744 61.103 19.2464C59.873 18.0164 58.393 17.4024 56.663 17.4024L56.664 17.4004ZM46.354 0.0803743H50.544L50.38 15.2864C52.18 13.9084 54.276 13.2164 56.664 13.2164C59.554 13.2164 62.019 14.2364 64.064 16.2864C66.116 18.3294 67.138 20.7934 67.138 23.6794C67.138 26.5654 66.116 29.0364 64.064 31.0794C62.019 33.1224 59.554 34.1434 56.664 34.1434C53.774 34.1434 51.302 33.1214 49.257 31.0784C47.213 29.0354 46.17 26.5644 46.19 23.6784L46.355 0.0813743L46.354 0.0803743ZM79.707 17.4004C77.977 17.4004 76.497 18.0154 75.267 19.2444C74.037 20.4724 73.423 21.9514 73.423 23.6794C73.423 25.4094 74.037 26.8864 75.267 28.1154C76.497 29.3454 77.977 29.9594 79.707 29.9594C81.437 29.9594 82.917 29.3444 84.147 28.1164C85.377 26.8884 85.992 25.4104 85.992 23.6814C85.992 21.9534 85.377 20.4744 84.147 19.2464C82.917 18.0164 81.437 17.4024 79.707 17.4024V17.4004ZM69.233 0.0723743H73.423V15.2864C75.225 13.9084 77.319 13.2164 79.707 13.2164C82.597 13.2164 85.062 14.2364 87.107 16.2864C89.159 18.3294 90.182 20.7934 90.182 23.6794C90.182 26.5654 89.159 29.0364 87.107 31.0794C85.062 33.1224 82.597 34.1434 79.707 34.1434C76.819 34.1434 74.345 33.1214 72.3 31.0784C70.256 29.0354 69.233 26.5644 69.233 23.6784V0.0723743ZM27.336 23.6794C27.336 25.4094 27.951 26.8864 29.181 28.1154C30.411 29.3454 31.891 29.9594 33.621 29.9594C35.351 29.9594 36.831 29.3444 38.061 28.1164C39.291 26.8894 39.921 25.4104 39.907 23.6814L39.742 5.99137H43.932L44.097 23.6814C44.124 26.5664 43.073 29.0374 41.023 31.0814C38.977 33.1214 36.513 34.1454 33.623 34.1454C30.735 34.1454 28.263 33.1234 26.217 31.0804C24.173 29.0374 23.15 26.5664 23.15 23.6804V13.2164H27.34V23.6794" fill="#0075B6"/>
<path fill-rule="evenodd" clip-rule="evenodd" d="M33.686 23.6794H37.876V11.9644H33.686" fill="#77B635"/>
</svg>
